<?xml version="1.0" standalone="no"?><!DOCTYPE svg PUBLIC "-//W3C//DTD SVG 1.1//EN" "http://www.w3.org/Graphics/SVG/1.1/DTD/svg11.dtd"><svg t="1530166939394" class="icon" style="" viewBox="0 0 1025 1024" version="1.1" xmlns="http://www.w3.org/2000/svg" p-id="4975" xmlns:xlink="http://www.w3.org/1999/xlink" width="64.0625" height="64"><defs><style type="text/css"></style></defs><path d="M493.668 489.763c49.31-37.496 81.287-96.607 81.287-163.333 0-113.378-91.911-205.289-205.289-205.289s-205.289 91.911-205.289 205.289c0 66.944 32.188 126.221 81.773 163.696-143.213 55.007-246.15 201.766-246.15 374.241 0 21.251 17.229 38.492 38.492 38.492s38.492-17.241 38.492-38.492c0-176.871 131.613-320.764 293.386-320.764s293.386 143.893 293.386 320.764c0 21.251 17.229 38.492 38.492 38.492s38.492-17.241 38.492-38.492C740.739 691.521 637.363 544.49 493.668 489.763zM369.667 198.125c70.748 0 128.305 57.557 128.305 128.305s-57.557 128.305-128.305 128.305-128.305-57.557-128.305-128.305S298.919 198.125 369.667 198.125z" p-id="4976" fill="#ff6f3d"></path><path d="M819.177 510.73c33.42-34.858 53.451-81.738 53.451-132.971 0-106.128-86.33-192.458-192.458-192.458-21.263 0-38.492 17.241-38.492 38.492s17.229 38.492 38.492 38.492c63.677 0 115.475 51.798 115.475 115.475 0 50.47-33.668 95.903-81.882 110.513-1.01 0.305-1.894 0.811-2.858 1.19-0.916 0.366-1.839 0.697-2.721 1.132-1.673 0.81-3.219 1.757-4.727 2.777-0.426 0.291-0.861 0.554-1.275 0.863-1.764 1.3-3.372 2.738-4.871 4.296-0.133 0.141-0.276 0.269-0.407 0.413-9.045 9.7-12.951 23.706-8.827 37.317 0.301 0.995 0.955 1.749 1.328 2.7 0.789 2.028 1.75 3.953 2.862 5.811 1.035 1.718 2.122 3.309 3.389 4.818 1.488 1.796 3.118 3.45 4.918 4.957 1.021 0.841 2.002 1.657 3.1 2.388 2.611 1.767 5.419 3.255 8.472 4.351 0.818 0.29 1.652 0.428 2.49 0.663 1.461 0.418 2.877 0.929 4.415 1.176 155.533 24.934 227.968 118.231 227.968 293.549 0 21.251 17.229 38.492 38.492 38.492s38.492-17.241 38.492-38.492C1024.001 680.788 953.456 562.984 819.177 510.73z" p-id="4977" fill="#ff6f3d"></path></svg>