<?xml version="1.0" standalone="no"?><!DOCTYPE svg PUBLIC "-//W3C//DTD SVG 1.1//EN" "http://www.w3.org/Graphics/SVG/1.1/DTD/svg11.dtd"><svg t="1530166803524" class="icon" style="" viewBox="0 0 1026 1024" version="1.1" xmlns="http://www.w3.org/2000/svg" p-id="930" xmlns:xlink="http://www.w3.org/1999/xlink" width="64.125" height="64"><defs><style type="text/css"></style></defs><path d="M514.133333 42.666667c258.133333 0 469.333333 211.2 469.333334 469.333333s-211.2 469.333333-469.333334 469.333333-469.333333-211.2-469.333333-469.333333 209.066667-469.333333 469.333333-469.333333m0-42.666667C230.4 0 2.133333 228.266667 2.133333 512s228.266667 512 512 512 512-228.266667 512-512-230.4-512-512-512z" fill="#ff6f3d" p-id="931"></path><path d="M514.133333 226.133333c157.866667 0 285.866667 128 285.866667 285.866667s-128 285.866667-285.866667 285.866667-285.866667-128-285.866666-285.866667 128-285.866667 285.866666-285.866667m0-42.666666C332.8 183.466667 185.6 330.666667 185.6 512s147.2 328.533333 328.533333 328.533333S840.533333 693.333333 840.533333 512 693.333333 183.466667 514.133333 183.466667z" fill="#ff6f3d" p-id="932"></path></svg>