<?xml version="1.0" standalone="no"?><!DOCTYPE svg PUBLIC "-//W3C//DTD SVG 1.1//EN" "http://www.w3.org/Graphics/SVG/1.1/DTD/svg11.dtd"><svg t="1529562159172" class="icon" style="" viewBox="0 0 1024 1024" version="1.1" xmlns="http://www.w3.org/2000/svg" p-id="10023" xmlns:xlink="http://www.w3.org/1999/xlink" width="64" height="64"><defs><style type="text/css"></style></defs><path d="M647.68 195.04v-3.408h-3.424l3.408 3.408zM512.368 0c-19.36 0-38.672 1.136-57.888 3.408A510.192 510.192 0 0 0 321.52 37.04s345.44 340.64 354.656 353.296V27.072a575.84 575.84 0 0 0-31.44-9.568A510.944 510.944 0 0 0 512.384 0z m135.28 195.04l-3.408-3.408h3.408v3.408zM830.24 379.104l2-1.728-2-1.68v3.408zM877.984 148a500.128 500.128 0 0 0-43.344-38.368A509.6 509.6 0 0 0 716.8 39.744s2.56 484.128 0 499.584l257.84-256.88a517.968 517.968 0 0 0-15.52-28.816 507.84 507.84 0 0 0-81.136-105.648zM830.24 379.104v-3.408l2.432 1.68-2.432 1.728zM834 646.816v-3.424l-3.408 3.424H834z m152.768-324.08s-341.76 344.16-354.56 353.312H996.8c3.52-10.24 6.656-20.736 9.552-31.312A504.304 504.304 0 0 0 1024 512.848c0-19.536-1.216-38.784-3.472-57.696a502.528 502.528 0 0 0-33.76-132.416zM834 646.816h-3.408l3.408-3.424v3.424z m-188.128 184.48h-3.408l1.664 2.656 1.76-2.64z m-166.128-114.88L737.6 973.312a506.976 506.976 0 0 0 28.96-15.456 506.768 506.768 0 0 0 106.048-80.864c13.792-13.76 26.56-28.256 38.464-43.184A508.336 508.336 0 0 0 981.2 716.384s-485.888 2.56-501.44 0.048z m166.128 114.88l-1.76 2.656-1.648-2.64h3.408z m-266.704 2.864h3.424l-3.424-3.408v3.408zM348.16 633.616v363.312A509.456 509.456 0 0 0 511.968 1024c19.536 0 38.88-1.216 57.792-3.392a511.168 511.168 0 0 0 132.96-33.68c0.032 0-345.36-340.544-354.56-353.312z m31.04 200.432v-3.408l3.408 3.408h-3.424z m-183.488-187.2v-3.424l-2.72 1.76 2.72 1.648z m-145.536 92.16c4.832 9.808 10.032 19.408 15.52 28.848a504.24 504.24 0 0 0 81.12 105.712 489.6 489.6 0 0 0 43.344 38.32 506.4 506.4 0 0 0 117.856 69.872c0 0.016-2.624-484.16-0.144-499.648L50.176 738.992z m145.536-92.16l-2.72-1.68 2.72-1.744v3.408z m-2.848-267.536v3.008l3.36-3.008h-3.36z m-175.296 0.144A505.872 505.872 0 0 0 0 511.36c0 19.472 1.232 38.784 3.456 57.632A498.72 498.72 0 0 0 37.248 701.44s341.728-344.16 354.528-353.28H27.136c-3.52 10.192-6.672 20.72-9.568 31.296z m175.296-0.16h3.36l-3.36 3.024v-3.008z m186.912-185.792l-1.504 2.784h3.408l-1.92-2.784zM254.96 66.656a507.568 507.568 0 0 0-106.048 80.816 507.68 507.68 0 0 0-38.528 43.2 507.744 507.744 0 0 0-70.16 117.504s486-2.576 501.504-0.096L283.92 51.2c-9.808 4.88-19.504 10-28.96 15.456z m124.8 126.848l1.92 2.784h-3.408l1.504-2.784z" p-id="10024" fill="#ffffff"></path></svg>